# xmcd
#
# Track frame offsets: 
#        150
#        14438
#        26808
#        41415
#        54688
#        65756
#        82715
#        103492
#
# Disc length: 2502 seconds
#
# Revision: 0
# Processed by: cddbd v1.5.2PL0 Copyright (c) Steve Scherf et al.
# Submitted via: ExactAudioCopy v1.0b1
#
DISCID=6809c408
DTITLE=Elmeri Vehkala and Taustasäteily - Viekää minut johtajanne luo
DYEAR=2010
DGENRE=Folk/Rock
TTITLE0=Countryenkeli
TTITLE1=Minä ja partainen mies
TTITLE2=Hymy
TTITLE3=Made In Korea
TTITLE4=Sähkökettu
TTITLE5=Pallas Athene
TTITLE6=Sädemies L.O.V.E.
TTITLE7=Di-da-daa and Majava (Mika Vepsäläinen)
EXTD=
EXTT0=
EXTT1=
EXTT2=
EXTT3=
EXTT4=
EXTT5=
EXTT6=
EXTT7=
PLAYORDER=
